<?xml version="1.0" encoding="UTF-8"?>
<svg version="1.1" xmlns="http://www.w3.org/2000/svg" width="1000" height="1000">
<path d="M0 0 C0 0.66 0 1.32 0 2 C1.06476563 1.98839844 2.12953125 1.97679687 3.2265625 1.96484375 C12.54366745 1.89583614 21.71246986 2.1757501 31 3 C31 3.66 31 4.32 31 5 C32.12535156 4.98259766 32.12535156 4.98259766 33.2734375 4.96484375 C39.92337417 4.9062171 46.40004873 5.18230692 53 6 C53 6.66 53 7.32 53 8 C54.299375 7.95875 55.59875 7.9175 56.9375 7.875 C61.1226078 7.86842997 64.82596836 8.49086541 68.875 9.49609375 C71.2328557 10.09098707 71.2328557 10.09098707 74.625 10.5 C78.21053223 11.03118996 81.51772944 12.00506555 85 13 C86.155 13.165 87.31 13.33 88.5 13.5 C92.13949487 14.01992784 95.47372374 14.97417418 99 16 C100.99488234 16.36270588 102.9937811 16.70640699 105 17 C105 17.66 105 18.32 105 19 C108.63 19.33 112.26 19.66 116 20 C116 20.66 116 21.32 116 22 C119.63 22.33 123.26 22.66 127 23 C127 23.66 127 24.32 127 25 C127.72574219 24.96132813 128.45148437 24.92265625 129.19921875 24.8828125 C132.20444594 25.00855422 134.07722978 25.66423419 136.8125 26.875 C141.17492937 28.71938543 145.38056076 29.97345795 150 31 C150 31.66 150 32.32 150 33 C151.134375 33.103125 152.26875 33.20625 153.4375 33.3125 C158.19397351 33.89110501 162.51898346 35.35073697 167 37 C167 37.66 167 38.32 167 39 C168.60875 39.185625 168.60875 39.185625 170.25 39.375 C173.37863615 39.89643936 175.33480424 40.40088254 178 42 C178 42.66 178 43.32 178 44 C179.010625 44.103125 180.02125 44.20625 181.0625 44.3125 C185.21218208 45.03704767 188.21356263 46.22269266 192 48 C192 48.66 192 49.32 192 50 C193.98 50.33 195.96 50.66 198 51 C198 51.66 198 52.32 198 53 C199.98 53.33 201.96 53.66 204 54 C204 54.66 204 55.32 204 56 C204.70511719 56.11214844 205.41023437 56.22429687 206.13671875 56.33984375 C209.27389512 57.06314908 211.90127906 58.19457691 214.8125 59.5625 C216.27623047 60.24505859 216.27623047 60.24505859 217.76953125 60.94140625 C218.87361328 61.46541016 218.87361328 61.46541016 220 62 C220 62.66 220 63.32 220 64 C221.98 64.33 223.96 64.66 226 65 C226 65.66 226 66.32 226 67 C228.475 67.495 228.475 67.495 231 68 C231 68.66 231 69.32 231 70 C232.0828125 70.12375 232.0828125 70.12375 233.1875 70.25 C236.56537138 71.1507657 238.34878227 72.7673956 241 75 C241.99 75.33 242.98 75.66 244 76 C244 76.66 244 77.32 244 78 C246.475 78.495 246.475 78.495 249 79 C249 79.66 249 80.32 249 81 C249.804375 81.12375 250.60875 81.2475 251.4375 81.375 C252.283125 81.58125 253.12875 81.7875 254 82 C254.33 82.66 254.66 83.32 255 84 C255.99 84.33 256.98 84.66 258 85 C258 85.66 258 86.32 258 87 C258.70511719 87.2578125 259.41023437 87.515625 260.13671875 87.78125 C263.24269315 89.10330186 265.95978065 90.69747854 268.8125 92.5 C269.78832031 93.1084375 270.76414062 93.716875 271.76953125 94.34375 C272.87361328 95.16359375 272.87361328 95.16359375 274 96 C274 96.66 274 97.32 274 98 C274.70125 98.2475 275.4025 98.495 276.125 98.75 C281.24709959 100.97699982 285.14430299 104.01134792 289 108 C289.99 108.66 290.98 109.32 292 110 C292 110.66 292 111.32 292 112 C292.763125 112.28875 293.52625 112.5775 294.3125 112.875 C297 114 297 114 300 116 C300 116.66 300 117.32 300 118 C300.99 118.33 301.98 118.66 303 119 C303 119.66 303 120.32 303 121 C303.721875 121.2475 304.44375 121.495 305.1875 121.75 C310.41970024 124.07542233 313.52102312 127.56130536 317 132 C317.66 132.33 318.32 132.66 319 133 C319 133.66 319 134.32 319 135 C319.8353125 135.37125 319.8353125 135.37125 320.6875 135.75 C323.42410913 137.22924818 325.67650869 138.93467439 328 141 C328 141.66 328 142.32 328 143 C328.99 143.33 329.98 143.66 331 144 C331 144.66 331 145.32 331 146 C331.66 146 332.32 146 333 146 C334.33895632 147.66215268 335.67130142 149.32963607 337 151 C337.78375 151.61875 338.5675 152.2375 339.375 152.875 C342.67394427 155.54557393 345.52348038 158.54478707 348 162 C348 162.66 348 163.32 348 164 C348.66 164 349.32 164 350 164 C351.7265625 165.6796875 351.7265625 165.6796875 353.625 167.875 C354.25664063 168.59429687 354.88828125 169.31359375 355.5390625 170.0546875 C357 172 357 172 357 174 C357.66 174 358.32 174 359 174 C362 177.46153846 362 177.46153846 362 180 C362.66 180 363.32 180 364 180 C368 184.47058824 368 184.47058824 368 187 C368.66 187 369.32 187 370 187 C370.33 188.32 370.66 189.64 371 191 C371.66 191 372.32 191 373 191 C373.33 192.32 373.66 193.64 374 195 C374.66 195 375.32 195 376 195 C379 198.46153846 379 198.46153846 379 201 C379.66 201 380.32 201 381 201 C381.33 202.32 381.66 203.64 382 205 C382.66 205 383.32 205 384 205 C384.33 205.99 384.66 206.98 385 208 C385.66 208.33 386.32 208.66 387 209 C387.625 211.5625 387.625 211.5625 388 214 C388.66 214 389.32 214 390 214 C394 220.75 394 220.75 394 223 C394.66 223 395.32 223 396 223 C396 223.99 396 224.98 396 226 C396.66 226 397.32 226 398 226 C402 232.75 402 232.75 402 235 C402.66 235 403.32 235 404 235 C404.67408308 236.26691507 405.33900497 237.53870749 406 238.8125 C406.37125 239.52019531 406.7425 240.22789062 407.125 240.95703125 C408 243 408 243 408 246 C408.66 246 409.32 246 410 246 C413 251.625 413 251.625 413 255 C413.66 255 414.32 255 415 255 C415.33 256.65 415.66 258.3 416 260 C416.87140625 259.97679687 417.7428125 259.95359375 418.640625 259.9296875 C425.66046404 259.8233263 432.19502513 260.17984326 439.08984375 261.48828125 C443.69766624 262.29851581 448.33783463 262.65125535 453 263 C453 263.66 453 264.32 453 265 C454.7634375 264.9690625 454.7634375 264.9690625 456.5625 264.9375 C463.03593645 264.9488969 468.80196518 266.20718001 475 268 C477.64249773 268.72094908 480.28979436 269.42344895 482.9375 270.125 C483.62134766 270.30675781 484.30519531 270.48851562 485.00976562 270.67578125 C486.6730235 271.11776586 488.3364897 271.55896638 490 272 C490 272.66 490 273.32 490 274 C490.59167969 274.04898437 491.18335938 274.09796875 491.79296875 274.1484375 C496.19104472 274.56456867 499.96928897 275.04965595 504 277 C504 277.66 504 278.32 504 279 C506.64 279.33 509.28 279.66 512 280 C512 280.66 512 281.32 512 282 C512.825 282.103125 513.65 282.20625 514.5 282.3125 C518.59289012 283.11646056 522.12540225 284.46352158 526 286 C526 286.66 526 287.32 526 288 C527.98 288.33 529.96 288.66 532 289 C532 289.66 532 290.32 532 291 C533.65 291.33 535.3 291.66 537 292 C537 292.66 537 293.32 537 294 C537.99 294 538.98 294 540 294 C540 294.66 540 295.32 540 296 C540.52207031 296.08378906 541.04414062 296.16757812 541.58203125 296.25390625 C544.9335398 297.28805509 547.73596642 299.09074865 550.6875 300.9375 C551.57791992 301.47793945 551.57791992 301.47793945 552.48632812 302.02929688 C556.87251626 304.74503251 556.87251626 304.74503251 558 307 C559.73599924 307.98264108 561.4733367 308.96314772 563.22265625 309.921875 C565.50636963 311.30716048 567.18437686 313.05468949 569 315 C569.99 315.66 570.98 316.32 572 317 C572 317.66 572 318.32 572 319 C572.99 319.33 573.98 319.66 575 320 C575 320.66 575 321.32 575 322 C575.5775 322.061875 576.155 322.12375 576.75 322.1875 C579.90643986 323.3273255 581.03367464 325.33594629 583 328 C583.86625 328.8353125 583.86625 328.8353125 584.75 329.6875 C586 331 586 331 586 333 C586.99 333.33 587.98 333.66 589 334 C589 334.66 589 335.32 589 336 C589.66 336 590.32 336 591 336 C593.8394052 339.67452438 595 341.26886581 595 346 C592.35261084 347.4606285 591.10551666 348 588 348 C588 348.66 588 349.32 588 350 C586.23141309 350.67260351 584.46003984 351.33788395 582.6875 352 C581.70136719 352.37125 580.71523438 352.7425 579.69921875 353.125 C577 354 577 354 574 354 C574 354.66 574 355.32 574 356 C572.23141309 356.67260351 570.46003984 357.33788395 568.6875 358 C567.70136719 358.37125 566.71523438 358.7425 565.69921875 359.125 C563 360 563 360 560 360 C560 360.66 560 361.32 560 362 C559.32453125 362.26554687 558.6490625 362.53109375 557.953125 362.8046875 C557.06109375 363.15789062 556.1690625 363.51109375 555.25 363.875 C554.36828125 364.22304688 553.4865625 364.57109375 552.578125 364.9296875 C550.0384159 365.93715443 550.0384159 365.93715443 547.859375 367.1328125 C546 368 546 368 543 368 C543 368.66 543 369.32 543 370 C541.23141309 370.67260351 539.46003984 371.33788395 537.6875 372 C536.70136719 372.37125 535.71523438 372.7425 534.69921875 373.125 C532 374 532 374 529 374 C529 374.66 529 375.32 529 376 C527.10667466 376.81832722 525.21022267 377.62942268 523.3125 378.4375 C522.25675781 378.88996094 521.20101562 379.34242188 520.11328125 379.80859375 C517.38027471 380.85447455 514.87957663 381.53520748 512 382 C512 382.66 512 383.32 512 384 C509.36 384.33 506.72 384.66 504 385 C504 385.66 504 386.32 504 387 C502.02 387.33 500.04 387.66 498 388 C498 388.66 498 389.32 498 390 C496.23141309 390.67260351 494.46003984 391.33788395 492.6875 392 C491.70136719 392.37125 490.71523438 392.7425 489.69921875 393.125 C487 394 487 394 484 394 C484 394.66 484 395.32 484 396 C482.68 396 481.36 396 480 396 C480 396.66 480 397.32 480 398 C477.69 398.33 475.38 398.66 473 399 C473 399.66 473 400.32 473 401 C471.23141309 401.67260351 469.46003984 402.33788395 467.6875 403 C466.70136719 403.37125 465.71523438 403.7425 464.69921875 404.125 C462 405 462 405 459 405 C459 405.66 459 406.32 459 407 C456.91780951 407.81542431 454.83420239 408.62723189 452.75 409.4375 C451.58984375 409.88996094 450.4296875 410.34242188 449.234375 410.80859375 C446.81033692 411.70150633 444.51713525 412.45794365 442 413 C442 413.66 442 414.32 442 415 C439.69 415.33 437.38 415.66 435 416 C435 416.66 435 417.32 435 418 C432.69 418.33 430.38 418.66 428 419 C428 419.66 428 420.32 428 421 C425.69 421.33 423.38 421.66 421 422 C421 422.66 421 423.32 421 424 C419.02 424.33 417.04 424.66 415 425 C415 425.66 415 426.32 415 427 C412.69 427.33 410.38 427.66 408 428 C408 428.66 408 429.32 408 430 C402.375 433 402.375 433 399 433 C399 433.66 399 434.32 399 435 C397.02 435.33 395.04 435.66 393 436 C393 436.66 393 437.32 393 438 C391.02 438.33 389.04 438.66 387 439 C387 439.66 387 440.32 387 441 C384.36 441.33 381.72 441.66 379 442 C379 442.66 379 443.32 379 444 C377.75336669 444.50833591 376.50250613 445.00631145 375.25 445.5 C374.55390625 445.7784375 373.8578125 446.056875 373.140625 446.34375 C371 447 371 447 367 447 C367 447.66 367 448.32 367 449 C364.36 449.33 361.72 449.66 359 450 C359 450.66 359 451.32 359 452 C356.03 452.33 353.06 452.66 350 453 C350 453.66 350 454.32 350 455 C346.37 455.33 342.74 455.66 339 456 C339 456.66 339 457.32 339 458 C335.37 458.33 331.74 458.66 328 459 C328 459.66 328 460.32 328 461 C327.14535156 461.13277344 326.29070313 461.26554687 325.41015625 461.40234375 C324.30542969 461.57894531 323.20070313 461.75554687 322.0625 461.9375 C320.96035156 462.11152344 319.85820313 462.28554688 318.72265625 462.46484375 C316.09573071 462.71845136 316.09573071 462.71845136 315 464 C312.66702567 464.04092937 310.33294775 464.04241723 308 464 C308 464.66 308 465.32 308 466 C302.72 466.33 297.44 466.66 292 467 C292 467.66 292 468.32 292 469 C291.09906616 469.08302368 291.09906616 469.08302368 290.17993164 469.16772461 C287.47366869 469.41970782 284.76810116 469.6785117 282.0625 469.9375 C281.11697266 470.02451172 280.17144531 470.11152344 279.19726562 470.20117188 C278.29814453 470.28818359 277.39902344 470.37519531 276.47265625 470.46484375 C275.64000244 470.543396 274.80734863 470.62194824 273.94946289 470.70288086 C271.999388 470.80311398 271.999388 470.80311398 271 472 C269.01524108 472.21668331 267.02366446 472.37153113 265.03125 472.5 C263.82082031 472.5825 262.61039063 472.665 261.36328125 472.75 C258.78776042 472.91666667 256.21223958 473.08333333 253.63671875 473.25 C252.42628906 473.3325 251.21585938 473.415 249.96875 473.5 C248.84919922 473.5721875 247.72964844 473.644375 246.57617188 473.71875 C244.07109868 473.72017175 244.07109868 473.72017175 243 475 C241.42619465 475.15794233 239.84557609 475.24860469 238.26513672 475.31201172 C237.24968781 475.35335236 236.23423889 475.39469299 235.1880188 475.43728638 C233.51326981 475.49539993 233.51326981 475.49539993 231.8046875 475.5546875 C230.06238358 475.61775589 230.06238358 475.61775589 228.28488159 475.68209839 C215.83787793 476.09514318 203.39472915 476.15110721 190.94189453 476.13037109 C187.13439946 476.12501323 183.32702279 476.13035744 179.51953125 476.13671875 C166.75218148 476.14061743 154.0019539 475.98383339 141.2421875 475.5546875 C140.03982452 475.51594513 138.83746155 475.47720276 137.59866333 475.43728638 C135.94663406 475.37527542 135.94663406 475.37527542 134.26123047 475.31201172 C133.2903952 475.2761496 132.31955994 475.24028748 131.31930542 475.20333862 C129 475 129 475 127 474 C124.59690905 473.77437419 122.21312822 473.59959952 119.8046875 473.46484375 C118.74352219 473.40037804 118.74352219 473.40037804 117.66091919 473.33460999 C115.39916894 473.19815223 113.13711498 473.06775752 110.875 472.9375 C109.34242408 472.84610192 107.8098716 472.75430997 106.27734375 472.66210938 C102.51848594 472.43683332 98.75934461 472.2169946 95 472 C95 471.34 95 470.68 95 470 C94.18917969 470.01160156 93.37835938 470.02320313 92.54296875 470.03515625 C85.29433826 470.09422542 78.20367799 469.80842879 71 469 C71 468.34 71 467.68 71 467 C70.39414062 467.01160156 69.78828125 467.02320313 69.1640625 467.03515625 C63.04075052 467.10109961 57.07906669 466.72431433 51 466 C51 465.34 51 464.68 51 464 C50.36191406 464.01160156 49.72382813 464.02320313 49.06640625 464.03515625 C47.82697266 464.04869141 47.82697266 464.04869141 46.5625 464.0625 C45.73878906 464.07410156 44.91507812 464.08570313 44.06640625 464.09765625 C42 464 42 464 41 463 C38.92243344 462.66975098 36.83726451 462.38705744 34.75 462.125 C27.71350466 461.17138872 20.88615336 459.71581894 14 458 C14 457.34 14 456.68 14 456 C9.38 455.67 4.76 455.34 0 455 C0 454.34 0 453.68 0 453 C-1.8871875 453.0309375 -1.8871875 453.0309375 -3.8125 453.0625 C-9.24514947 453.07115072 -14.60104876 452.56512387 -20 452 C-20 451.34 -20 450.68 -20 450 C-54.98 450 -89.96 450 -126 450 C-126 450.66 -126 451.32 -126 452 C-127.26444946 452.08302368 -127.26444946 452.08302368 -128.55444336 452.16772461 C-131.67254301 452.3746505 -134.7903285 452.58569117 -137.90795898 452.79956055 C-139.25908409 452.8913909 -140.61032281 452.98156498 -141.96166992 453.07006836 C-143.90051668 453.19733406 -145.83894069 453.33098983 -147.77734375 453.46484375 C-148.94515381 453.543396 -150.11296387 453.62194824 -151.31616211 453.70288086 C-153.91604535 453.70770973 -153.91604535 453.70770973 -155 455 C-162.6308957 456.03361631 -170.3128119 456.13619034 -178 456 C-178 456.66 -178 457.32 -178 458 C-179.27617187 458.13277344 -180.55234375 458.26554687 -181.8671875 458.40234375 C-183.53647996 458.58052665 -185.20574964 458.75892314 -186.875 458.9375 C-187.71675781 459.02451172 -188.55851563 459.11152344 -189.42578125 459.20117188 C-190.23144531 459.28818359 -191.03710938 459.37519531 -191.8671875 459.46484375 C-192.61081543 459.543396 -193.35444336 459.62194824 -194.12060547 459.70288086 C-196.08446316 459.91637347 -196.08446316 459.91637347 -198 461 C-201.43716155 461.46953754 -204.87463023 461.86858485 -208.32226562 462.25 C-211.96754441 462.36998772 -211.96754441 462.36998772 -215 464 C-217.65463121 464.45459858 -220.32189138 464.70243238 -223 465 C-223 465.33 -223 465.66 -223 466 C-224.14339844 466.13277344 -225.28679687 466.26554687 -226.46484375 466.40234375 C-227.9557562 466.5805031 -229.44664018 466.75890082 -230.9375 466.9375 C-231.69224609 467.02451172 -232.44699219 467.11152344 -233.22460938 467.20117188 C-236.92187458 467.34324099 -236.92187458 467.34324099 -240 469 C-243.35527214 469.57725112 -246.72178372 470.03085686 -250.09375 470.5 C-252.88475283 470.69242705 -252.88475283 470.69242705 -254 472 C-257.35527214 472.57725112 -260.72178372 473.03085686 -264.09375 473.5 C-266.88475283 473.69242705 -266.88475283 473.69242705 -268 475 C-270.18292774 475.23481693 -272.37203174 475.41363323 -274.5625 475.5625 C-276.35880859 475.68818359 -276.35880859 475.68818359 -278.19140625 475.81640625 C-279.11824219 475.87699219 -280.04507813 475.93757813 -281 476 C-281 476.66 -281 477.32 -281 478 C-281.84304688 478.13277344 -282.68609375 478.26554687 -283.5546875 478.40234375 C-284.65039062 478.57894531 -285.74609375 478.75554687 -286.875 478.9375 C-287.96554687 479.11152344 -289.05609375 479.28554688 -290.1796875 479.46484375 C-292.93821546 479.85551159 -292.93821546 479.85551159 -295 481 C-296.99960012 481.039992 -299.00047242 481.04346799 -301 481 C-301 481.66 -301 482.32 -301 483 C-301.72445312 483.12117188 -302.44890625 483.24234375 -303.1953125 483.3671875 C-304.16210938 483.53476562 -305.12890625 483.70234375 -306.125 483.875 C-307.07632813 484.03742188 -308.02765625 484.19984375 -309.0078125 484.3671875 C-312.11252592 485.02379791 -314.9915649 485.99467813 -318 487 C-320.60135907 487.62772521 -323.20107971 488.2309716 -325.8125 488.8125 C-335.77628041 491.09150228 -345.64230802 493.80821008 -355.30859375 497.140625 C-358.03753179 498.01198403 -360.15630079 498.16727642 -363 498 C-363 498.66 -363 499.32 -363 500 C-366.63 500.33 -370.26 500.66 -374 501 C-374 501.66 -374 502.32 -374 503 C-376.97 503.33 -379.94 503.66 -383 504 C-383 504.66 -383 505.32 -383 506 C-386.3 506.33 -389.6 506.66 -393 507 C-393 506.01 -393 505.02 -393 504 C-391.68 503.67 -390.36 503.34 -389 503 C-389 502.34 -389 501.68 -389 501 C-387.68 500.67 -386.36 500.34 -385 500 C-385 499.34 -385 498.68 -385 498 C-383.35 497.67 -381.7 497.34 -380 497 C-380 496.34 -380 495.68 -380 495 C-374.375 492 -374.375 492 -371 492 C-371 491.34 -371 490.68 -371 490 C-369.35 489.67 -367.7 489.34 -366 489 C-366 488.34 -366 487.68 -366 487 C-365.39414062 486.76925781 -364.78828125 486.53851562 -364.1640625 486.30078125 C-358.63398603 484.14830533 -353.36668764 481.74436645 -348.12890625 478.953125 C-346 478 -346 478 -343 478 C-343 477.34 -343 476.68 -343 476 C-341.02 475.67 -339.04 475.34 -337 475 C-337 474.34 -337 473.68 -337 473 C-334.36 472.67 -331.72 472.34 -329 472 C-329 471.34 -329 470.68 -329 470 C-327.02 469.67 -325.04 469.34 -323 469 C-323 468.34 -323 467.68 -323 467 C-320.36 466.67 -317.72 466.34 -315 466 C-315 465.34 -315 464.68 -315 464 C-313.73160474 463.49384702 -312.46016898 462.99530901 -311.1875 462.5 C-310.12595703 462.08234375 -310.12595703 462.08234375 -309.04296875 461.65625 C-307 461 -307 461 -304 461 C-304 460.34 -304 459.68 -304 459 C-302.06441401 458.32779649 -300.12645628 457.66241923 -298.1875 457 C-297.10855469 456.62875 -296.02960938 456.2575 -294.91796875 455.875 C-292 455 -292 455 -289 455 C-289 454.34 -289 453.68 -289 453 C-286.36 452.67 -283.72 452.34 -281 452 C-281 451.34 -281 450.68 -281 450 C-279.06441401 449.32779649 -277.12645628 448.66241923 -275.1875 448 C-274.10855469 447.62875 -273.02960938 447.2575 -271.91796875 446.875 C-269 446 -269 446 -266 446 C-266 445.34 -266 444.68 -266 444 C-264.35 444 -262.7 444 -261 444 C-261 443.34 -261 442.68 -261 442 C-258.36 441.67 -255.72 441.34 -253 441 C-253 440.34 -253 439.68 -253 439 C-251.06441401 438.32779649 -249.12645628 437.66241923 -247.1875 437 C-246.10855469 436.62875 -245.02960938 436.2575 -243.91796875 435.875 C-241 435 -241 435 -238 435 C-238 434.34 -238 433.68 -238 433 C-236.58603098 432.49242138 -235.16868271 431.99425075 -233.75 431.5 C-232.56664062 431.08234375 -232.56664062 431.08234375 -231.359375 430.65625 C-229 430 -229 430 -225 430 C-225 429.34 -225 428.68 -225 428 C-222.03 427.67 -219.06 427.34 -216 427 C-216 426.34 -216 425.68 -216 425 C-213.36 424.67 -210.72 424.34 -208 424 C-208 423.34 -208 422.68 -208 422 C-205.03 421.67 -202.06 421.34 -199 421 C-199 420.34 -199 419.68 -199 419 C-196.36 418.67 -193.72 418.34 -191 418 C-191 417.34 -191 416.68 -191 416 C-190.10796875 415.73445313 -189.2159375 415.46890625 -188.296875 415.1953125 C-186.54117188 414.66550781 -186.54117188 414.66550781 -184.75 414.125 C-183.58984375 413.77695312 -182.4296875 413.42890625 -181.234375 413.0703125 C-178.1158571 412.1343285 -178.1158571 412.1343285 -175.828125 410.8671875 C-174 410 -174 410 -170 410 C-170 409.34 -170 408.68 -170 408 C-169.45472656 407.90203125 -168.90945312 407.8040625 -168.34765625 407.703125 C-164.24691953 406.88998746 -160.53879708 405.91044426 -156.75 404.125 C-149.7214188 400.83344613 -141.85852221 397.59252107 -134 398 C-134 397.34 -134 396.68 -134 396 C-129.71 394.68 -125.42 393.36 -121 392 C-121 391.67 -121 391.34 -121 391 C-118.94037148 390.32451422 -116.87715678 389.65995688 -114.8125 389 C-113.66394531 388.62875 -112.51539063 388.2575 -111.33203125 387.875 C-108.35679188 387.09369447 -106.04716104 386.81636694 -103 387 C-103 386.34 -103 385.68 -103 385 C-100.03 384.67 -97.06 384.34 -94 384 C-94 383.34 -94 382.68 -94 382 C-91.03 381.67 -88.06 381.34 -85 381 C-85 380.34 -85 379.68 -85 379 C-83.35 379 -81.7 379 -80 379 C-80 378.34 -80 377.68 -80 377 C-77.03 376.67 -74.06 376.34 -71 376 C-71 375.34 -71 374.68 -71 374 C-68.03 373.67 -65.06 373.34 -62 373 C-62 372.34 -62 371.68 -62 371 C-58.7 370.67 -55.4 370.34 -52 370 C-52 369.34 -52 368.68 -52 368 C-49.03 367.67 -46.06 367.34 -43 367 C-43 366.34 -43 365.68 -43 365 C-40.03 364.67 -37.06 364.34 -34 364 C-34 363.34 -34 362.68 -34 362 C-32.35 362 -30.7 362 -29 362 C-29 361.34 -29 360.68 -29 360 C-26.03 359.67 -23.06 359.34 -20 359 C-20 358.34 -20 357.68 -20 357 C-19.40832031 356.87882812 -18.81664062 356.75765625 -18.20703125 356.6328125 C-14.76324363 355.90248234 -11.51573745 355.2109835 -8.25 353.875 C-5.69692993 352.88213942 -3.71566581 352.8448191 -1 353 C-1 352.34 -1 351.68 -1 351 C1.97 350.67 4.94 350.34 8 350 C8 349.34 8 348.68 8 348 C8.63808594 347.86722656 9.27617187 347.73445313 9.93359375 347.59765625 C10.75988281 347.42105469 11.58617187 347.24445313 12.4375 347.0625 C13.26121094 346.88847656 14.08492188 346.71445312 14.93359375 346.53515625 C16.97661204 346.19247006 16.97661204 346.19247006 18 345 C19.66617115 344.95936168 21.33388095 344.957279 23 345 C23 344.34 23 343.68 23 343 C26.3 342.67 29.6 342.34 33 342 C33 341.34 33 340.68 33 340 C35.97 339.67 38.94 339.34 42 339 C42 338.34 42 337.68 42 337 C44.97 336.67 47.94 336.34 51 336 C51 335.34 51 334.68 51 334 C54.3 333.67 57.6 333.34 61 333 C61 332.34 61 331.68 61 331 C61.63808594 330.86722656 62.27617187 330.73445313 62.93359375 330.59765625 C63.75988281 330.42105469 64.58617187 330.24445313 65.4375 330.0625 C66.26121094 329.88847656 67.08492188 329.71445312 67.93359375 329.53515625 C69.97661204 329.19247006 69.97661204 329.19247006 71 328 C72.66617115 327.95936168 74.33388095 327.957279 76 328 C76 327.34 76 326.68 76 326 C78.97 325.67 81.94 325.34 85 325 C85 324.34 85 323.68 85 323 C88.3 322.67 91.6 322.34 95 322 C95 321.34 95 320.68 95 320 C98.3 319.67 101.6 319.34 105 319 C105 318.34 105 317.68 105 317 C108.3 316.67 111.6 316.34 115 316 C115 315.34 115 314.68 115 314 C117.31 313.67 119.62 313.34 122 313 C121.67 310.36 121.34 307.72 121 305 C120.34 305 119.68 305 119 305 C118.67 302.69 118.34 300.38 118 298 C117.34 298 116.68 298 116 298 C115.74605469 297.27554687 115.49210937 296.55109375 115.23046875 295.8046875 C113.41349648 290.7008328 111.56731829 285.78454772 109 281 C108.649375 280.2575 108.29875 279.515 107.9375 278.75 C107.01136225 276.81843591 107.01136225 276.81843591 105 275 C104.59952556 272.67724823 104.2602896 270.34260643 104 268 C103.34 268 102.68 268 102 268 C101.67 266.35 101.34 264.7 101 263 C100.34 263 99.68 263 99 263 C98.67 261.02 98.34 259.04 98 257 C97.34 257 96.68 257 96 257 C93 251.25 93 251.25 93 249 C92.34 249 91.68 249 91 249 C90.67 247.35 90.34 245.7 90 244 C89.34 244 88.68 244 88 244 C87.67 242.35 87.34 240.7 87 239 C86.34 239 85.68 239 85 239 C84.67 237.35 84.34 235.7 84 234 C83.34 234 82.68 234 82 234 C80.4921875 232.1015625 80.4921875 232.1015625 78.875 229.625 C78.33617187 228.81289063 77.79734375 228.00078125 77.2421875 227.1640625 C76 225 76 225 76 223 C75.34 223 74.68 223 74 223 C73.67 221.35 73.34 219.7 73 218 C72.34 218 71.68 218 71 218 C70.67 216.68 70.34 215.36 70 214 C69.34 214 68.68 214 68 214 C67.67 212.68 67.34 211.36 67 210 C66.34 210 65.68 210 65 210 C64.67 208.68 64.34 207.36 64 206 C63.34 206 62.68 206 62 206 C59 202.53846154 59 202.53846154 59 200 C58.34 200 57.68 200 57 200 C56.67 198.68 56.34 197.36 56 196 C55.34 196 54.68 196 54 196 C50 191.52941176 50 191.52941176 50 189 C49.34 189 48.68 189 48 189 C46.66796875 187.609375 46.66796875 187.609375 45.1875 185.75 C43.25948956 183.40614417 41.58385851 181.66708681 39.1875 179.75 C37 178 37 178 36 175 C34.33729713 173.66172696 32.67083819 172.32810215 31 171 C31 170.34 31 169.68 31 169 C30.34 169 29.68 169 29 169 C26.875 167.125 26.875 167.125 25 165 C25 164.34 25 163.68 25 163 C23.88625 162.6596875 23.88625 162.6596875 22.75 162.3125 C19.44133795 160.73336584 18.20535574 158.8945294 16 156 C15.0925 155.278125 14.185 154.55625 13.25 153.8125 C12.5075 153.214375 11.765 152.61625 11 152 C11 151.34 11 150.68 11 150 C10.195625 149.731875 9.39125 149.46375 8.5625 149.1875 C7.716875 148.795625 6.87125 148.40375 6 148 C5.67 147.01 5.34 146.02 5 145 C4.01 144.67 3.02 144.34 2 144 C2 143.34 2 142.68 2 142 C0.948125 141.6596875 0.948125 141.6596875 -0.125 141.3125 C-3.70552601 139.67791204 -6.02817402 137.5841965 -9 135 C-9.99 134.34 -10.98 133.68 -12 133 C-12 132.34 -12 131.68 -12 131 C-12.763125 130.71125 -13.52625 130.4225 -14.3125 130.125 C-17 129 -17 129 -20 127 C-20 126.34 -20 125.68 -20 125 C-21.32 124.67 -22.64 124.34 -24 124 C-24 123.34 -24 122.68 -24 122 C-25.65 121.67 -27.3 121.34 -29 121 C-29 120.34 -29 119.68 -29 119 C-29.70511719 118.7421875 -30.41023438 118.484375 -31.13671875 118.21875 C-34.24269315 116.89669814 -36.95978065 115.30252146 -39.8125 113.5 C-40.78832031 112.8915625 -41.76414062 112.283125 -42.76953125 111.65625 C-43.50558594 111.1096875 -44.24164063 110.563125 -45 110 C-45 109.34 -45 108.68 -45 108 C-45.721875 107.896875 -46.44375 107.79375 -47.1875 107.6875 C-50.27793421 106.93206053 -52.41743841 105.84468685 -55 104 C-55 103.34 -55 102.68 -55 102 C-56.65 101.67 -58.3 101.34 -60 101 C-60 100.34 -60 99.68 -60 99 C-61.98 98.67 -63.96 98.34 -66 98 C-66 97.34 -66 96.68 -66 96 C-68.65228812 94.92474806 -71.28368454 93.90543849 -74 93 C-74 92.34 -74 91.68 -74 91 C-75.98 90.67 -77.96 90.34 -80 90 C-80 89.34 -80 88.68 -80 88 C-81.98 87.67 -83.96 87.34 -86 87 C-86 86.34 -86 85.68 -86 85 C-87.98 84.67 -89.96 84.34 -92 84 C-92 83.34 -92 82.68 -92 82 C-92.9075 81.87625 -93.815 81.7525 -94.75 81.625 C-97.58970323 81.07890323 -99.52590591 80.42736197 -102 79 C-102 78.34 -102 77.68 -102 77 C-102.825 76.896875 -103.65 76.79375 -104.5 76.6875 C-108.59289012 75.88353944 -112.12540225 74.53647842 -116 73 C-116 72.34 -116 71.68 -116 71 C-118.31 70.67 -120.62 70.34 -123 70 C-123 69.34 -123 68.68 -123 68 C-125.31 67.67 -127.62 67.34 -130 67 C-130 66.34 -130 65.68 -130 65 C-131.175625 64.896875 -132.35125 64.79375 -133.5625 64.6875 C-137.76420959 64.16877042 -141.15012633 62.78234892 -145 61 C-146.99263591 60.31163487 -148.99041337 59.63718601 -151 59 C-151 58.34 -151 57.68 -151 57 C-151.59167969 56.95101562 -152.18335938 56.90203125 -152.79296875 56.8515625 C-157.23624048 56.43115506 -160.89033254 55.82651887 -165 54 C-166.65919896 53.63128912 -168.3247643 53.28718326 -170 53 C-170 52.34 -170 51.68 -170 51 C-170.66386719 50.95101562 -171.32773438 50.90203125 -172.01171875 50.8515625 C-176.73533155 50.45160696 -180.63696805 49.93912531 -185 48 C-186.9924325 47.62406934 -188.9918674 47.28020455 -191 47 C-191 46.34 -191 45.68 -191 45 C-191.78246094 44.93941406 -192.56492188 44.87882812 -193.37109375 44.81640625 C-194.38300781 44.73261719 -195.39492187 44.64882813 -196.4375 44.5625 C-197.44683594 44.48128906 -198.45617187 44.40007812 -199.49609375 44.31640625 C-202 44 -202 44 -203 43 C-205.32817964 42.63239269 -207.6618385 42.29758419 -210 42 C-210 41.34 -210 40.68 -210 40 C-216.93 39.505 -216.93 39.505 -224 39 C-224 38.34 -224 37.68 -224 37 C-225.14339844 36.93941406 -226.28679687 36.87882812 -227.46484375 36.81640625 C-228.95574305 36.73201572 -230.44662775 36.64736698 -231.9375 36.5625 C-232.69224609 36.52318359 -233.44699219 36.48386719 -234.22460938 36.44335938 C-239.88671875 36.11328125 -239.88671875 36.11328125 -241 35 C-242.63066766 34.77285996 -244.26976003 34.60544914 -245.91015625 34.46484375 C-246.89951172 34.37783203 -247.88886719 34.29082031 -248.90820312 34.20117188 C-249.94912109 34.11416016 -250.99003906 34.02714844 -252.0625 33.9375 C-253.10728516 33.84662109 -254.15207031 33.75574219 -255.22851562 33.66210938 C-257.8186915 33.43739092 -260.40915767 33.2168769 -263 33 C-263.33 31.35 -263.66 29.7 -264 28 C-263.15695312 27.86722656 -262.31390625 27.73445313 -261.4453125 27.59765625 C-260.34960938 27.42105469 -259.25390625 27.24445313 -258.125 27.0625 C-256.48917969 26.80146484 -256.48917969 26.80146484 -254.8203125 26.53515625 C-252.06178454 26.14448841 -252.06178454 26.14448841 -250 25 C-248.00039988 24.960008 -245.99952758 24.95653201 -244 25 C-244 24.34 -244 23.68 -244 23 C-242.71802734 22.80083984 -242.71802734 22.80083984 -241.41015625 22.59765625 C-240.30542969 22.42105469 -239.20070312 22.24445313 -238.0625 22.0625 C-236.40927734 21.80146484 -236.40927734 21.80146484 -234.72265625 21.53515625 C-232.09573071 21.28154864 -232.09573071 21.28154864 -231 20 C-227.64472786 19.42274888 -224.27821628 18.96914314 -220.90625 18.5 C-218.11524717 18.30757295 -218.11524717 18.30757295 -217 17 C-211.9301448 16.06880211 -207.12881696 15.91002076 -202 16 C-202 15.34 -202 14.68 -202 14 C-193.585 13.505 -193.585 13.505 -185 13 C-185 12.34 -185 11.68 -185 11 C-183.79601562 10.86722656 -182.59203125 10.73445313 -181.3515625 10.59765625 C-179.77601915 10.4194698 -178.20049953 10.2410735 -176.625 10.0625 C-175.8309375 9.97548828 -175.036875 9.88847656 -174.21875 9.79882812 C-169.97744999 9.3961065 -169.97744999 9.3961065 -166 8 C-163.40856095 7.68954474 -160.81628268 7.49026088 -158.21484375 7.28125 C-156.02929332 7.2334259 -156.02929332 7.2334259 -155 6 C-147.04035349 4.90537968 -139.01843723 4.87204621 -131 5 C-131 4.34 -131 3.68 -131 3 C-119.64732258 2.20431798 -108.37981825 1.87181682 -97 2 C-97 1.34 -97 0.68 -97 0 C-64.67294793 -1.46374899 -32.32610979 -1.53312529 0 0 Z " fill="#e6e6e6" transform="translate(399,247)"/>
</svg>
